<svg version="1.2" baseProfile="tiny-ps" xmlns="http://www.w3.org/2000/svg" viewBox="0 0 4500 3000" width="4500" height="3000">
	<title>Web Developer-ai</title>
	<style>
		tspan { white-space:pre }
		.shp0 { fill: #8400ff } 
		.shp1 { fill: #25197c } 
		.shp2 { fill: #ffffff } 
		.shp3 { fill: #a350f0 } 
		.shp4 { fill: #6111ac } 
		.shp5 { fill: #5d0ca9 } 
		.shp6 { fill: #000000 } 
		.shp7 { fill: #f3f3ff } 
		.shp8 { fill: #8627df } 
		.shp9 { fill: #721fc0 } 
		.shp10 { fill: #9329f6 } 
		.shp11 { fill: #9e36ff } 
		.shp12 { fill: #6915b7 } 
		.shp13 { fill: #6110ad } 
		.shp14 { fill: #f9ddc5 } 
		.shp15 { fill: #223040 } 
		.shp16 { fill: #a965e8 } 
		.shp17 { fill: #1a1466 } 
		.shp18 { fill: #1e1147 } 
		.shp19 { fill: #6ce0b9 } 
		.shp20 { fill: #30423d } 
		.shp21 { fill: #6311af } 
		.shp22 { fill: #7b1ed2 } 
		.shp23 { fill: #8521e2 } 
	</style>
	<g id="Layer 1">
		<g id="&lt;Group&gt;">
		</g>
		<g id="&lt;Group&gt;">
			<g id="&lt;Group&gt;" style="opacity: 0.22">
				<g id="&lt;Group&gt;">
					<g id="&lt;Group&gt;">
						<path id="&lt;Path&gt;" class="shp0" d="M3759.96 2045.84C3752.56 2114.23 3736.66 2183.4 3712.45 2251.68C3676.68 2352.66 3622.77 2451.74 3551.37 2543.67C3530.65 2570.38 3508.43 2596.48 3484.76 2621.84C3478.54 2628.49 3472.25 2635.09 3465.83 2641.64L739.08 2641.64C714.42 2321.45 721.63 2082.53 749.01 1904.27C760.65 1828.44 775.97 1763.58 794.02 1708.12C799.68 1690.7 805.63 1674.22 811.81 1658.61C864.9 1524.57 935.92 1455.13 1007.28 1419.17C1161.41 1341.53 1309.54 1423.92 1503.13 1500.68C1518.66 1506.86 1534.5 1512.99 1550.65 1518.97C1631.04 1548.86 1719.31 1575.74 1818.8 1589.02C1837.01 1591.47 1855.61 1593.43 1874.6 1594.89C1945.07 1600.31 2021.02 1598.56 2103.43 1586.32C2140.2 1580.85 2174.68 1573.84 2207.19 1565.56C2227.19 1560.49 2246.45 1554.91 2265.03 1548.94C2401.64 1505.1 2502.24 1439.35 2597.63 1379.35C2616.34 1367.57 2634.86 1356.01 2653.42 1344.89C2732.62 1297.41 2812.38 1257.76 2910.8 1242.22C2926.16 1239.77 2941.98 1237.94 2958.32 1236.75C2992.78 1234.23 3029.57 1234.6 3069.36 1238.43C3290.64 1259.79 3548.32 1383.04 3678.14 1613.54C3679.97 1616.75 3681.74 1620 3683.51 1623.24C3690.56 1636.28 3697.15 1649.56 3703.27 1663.05C3706.46 1670.04 3709.51 1677.1 3712.45 1684.21C3736.86 1743.37 3752.64 1806.2 3759.96 1871.14C3766.4 1928.1 3766.36 1986.7 3759.96 2045.84Z" />
					</g>
				</g>
			</g>
			<g id="&lt;Group&gt;" style="opacity: 0.078">
				<g id="&lt;Group&gt;">
					<g id="&lt;Group&gt;">
						<path id="&lt;Path&gt;" class="shp1" d="M1550.65 1518.97L1550.65 2641.64L739.08 2641.64C714.42 2321.45 721.63 2082.53 749.01 1904.27C760.65 1828.44 775.97 1763.58 794.02 1708.12C799.68 1690.7 805.63 1674.22 811.81 1658.61C864.9 1524.57 935.92 1455.13 1007.28 1419.17C1161.41 1341.53 1309.54 1423.92 1503.13 1500.68C1518.66 1506.86 1534.5 1512.99 1550.65 1518.97Z" />
					</g>
				</g>
				<g id="&lt;Group&gt;">
					<g id="&lt;Group&gt;">
						<path id="&lt;Path&gt;" class="shp2" d="M1503.13 1500.68L1503.13 1658.61L811.81 1658.61C864.9 1524.57 935.92 1455.13 1007.28 1419.17C1161.41 1341.53 1309.54 1423.92 1503.13 1500.68Z" />
					</g>
				</g>
				<g id="&lt;Group&gt;">
					<g id="&lt;Group&gt;">
						<path id="&lt;Path&gt;" class="shp2" d="M1503.13 1708.12L1503.13 2124.98L749.01 2124.98L749.01 1904.27C760.65 1828.44 775.97 1763.58 794.02 1708.12L1503.13 1708.12Z" />
					</g>
				</g>
				<g id="&lt;Group&gt;">
					<g id="&lt;Group&gt;">
						<path id="&lt;Path&gt;" class="shp1" d="M1188.26 1755.01L1046.73 1755.01L1046.73 1708.12L1188.26 1708.12L1188.26 1755.01Z" />
					</g>
				</g>
				<g id="&lt;Group&gt;">
					<g id="&lt;Group&gt;">
						<path id="&lt;Path&gt;" class="shp2" d="M1503.14 2588.75L749 2588.75L749 2171.88L1503.14 2171.88L1503.14 2588.75Z" />
					</g>
				</g>
				<g id="&lt;Group&gt;">
					<g id="&lt;Group&gt;">
						<path id="&lt;Path&gt;" class="shp1" d="M1188.26 2218.78L1046.73 2218.78L1046.73 2171.88L1188.26 2171.88L1188.26 2218.78Z" />
					</g>
				</g>
				<g id="&lt;Group&gt;">
					<g id="&lt;Group&gt;">
					</g>
				</g>
				<g id="&lt;Group&gt;">
					<g id="&lt;Group&gt;">
						<path id="&lt;Path&gt;" class="shp2" d="M3678.14 1613.54L2958.32 1613.54L2958.32 1236.75C2992.78 1234.23 3029.57 1234.6 3069.36 1238.43C3290.64 1259.79 3548.32 1383.04 3678.14 1613.54Z" />
					</g>
				</g>
				<g id="&lt;Group&gt;">
					<g id="&lt;Group&gt;">
					</g>
				</g>
				<g id="&lt;Group&gt;">
					<g id="&lt;Group&gt;">
						<path id="&lt;Path&gt;" class="shp1" d="M3397.57 1709.94L3256.04 1709.94L3256.04 1663.04L3397.57 1663.04L3397.57 1709.94Z" />
					</g>
				</g>
				<g id="&lt;Group&gt;">
					<g id="&lt;Group&gt;">
						<path id="&lt;Path&gt;" class="shp2" d="M3712.45 2126.81L3712.45 2251.68C3676.68 2352.66 3622.77 2451.74 3551.37 2543.67L2958.32 2543.67L2958.32 2126.81L3712.45 2126.81Z" />
					</g>
				</g>
				<g id="&lt;Group&gt;">
					<g id="&lt;Group&gt;">
						<path id="&lt;Path&gt;" class="shp1" d="M3397.57 2173.7L3256.04 2173.7L3256.04 2126.8L3397.57 2126.8L3397.57 2173.7Z" />
					</g>
				</g>
				<g id="&lt;Group&gt;">
					<g id="&lt;Group&gt;">
						<path id="&lt;Path&gt;" class="shp1" d="M2653.42 1344.89L2653.42 2172.64L1818.8 2172.64L1818.8 1589.02C1837.01 1591.47 1855.61 1593.43 1874.6 1594.89C1945.07 1600.31 2021.02 1598.56 2103.43 1586.32C2140.2 1580.85 2174.68 1573.84 2207.19 1565.56C2227.19 1560.49 2246.45 1554.91 2265.03 1548.94C2401.64 1505.1 2502.24 1439.35 2597.63 1379.35C2616.34 1367.57 2634.86 1356.01 2653.42 1344.89Z" />
					</g>
				</g>
				<g id="&lt;Group&gt;">
					<g id="&lt;Group&gt;">
						<path id="&lt;Path&gt;" class="shp2" d="M2597.63 1379.35L2597.63 2103.78L1874.6 2103.78L1874.6 1594.89C1945.07 1600.31 2021.02 1598.56 2103.43 1586.32C2140.2 1580.85 2174.68 1573.84 2207.19 1565.56C2227.19 1560.49 2246.45 1554.91 2265.03 1548.94C2401.64 1505.1 2502.24 1439.35 2597.63 1379.35Z" />
					</g>
				</g>
				<g id="&lt;Group&gt;">
					<g id="&lt;Group&gt;">
						<path id="&lt;Path&gt;" class="shp1" d="M2653.42 1715.39L1818.8 1715.39L1818.8 1657.54L2653.42 1657.54L2653.42 1715.39Z" />
					</g>
				</g>
				<g id="&lt;Group&gt;">
					<g id="&lt;Group&gt;">
						<path id="&lt;Path&gt;" class="shp1" d="M2207.19 1565.56C2227.19 1560.49 2246.45 1554.91 2265.03 1548.94L2265.03 2118.92L2207.19 2118.92L2207.19 1565.56Z" />
					</g>
				</g>
			</g>
			<g id="&lt;Group&gt;" style="opacity: 0.149">
				<g id="&lt;Group&gt;">
					<g id="&lt;Group&gt;">
						<path id="&lt;Path&gt;" class="shp1" d="M3103.64 734.98C3103.64 821.1 3033.83 890.92 2947.7 890.92C2861.58 890.92 2791.76 821.1 2791.76 734.98C2791.76 648.86 2861.58 579.04 2947.7 579.04C3033.83 579.04 3103.64 648.86 3103.64 734.98Z" />
					</g>
				</g>
			</g>
			<g id="&lt;Group&gt;" style="opacity: 0.149">
				<g id="&lt;Group&gt;">
					<g id="&lt;Group&gt;">
						<path id="&lt;Path&gt;" class="shp1" d="M3445.51 741.27C3445.51 827.4 3375.69 897.21 3289.57 897.21C3203.45 897.21 3133.63 827.4 3133.63 741.27C3133.63 655.15 3203.45 585.33 3289.57 585.33C3375.69 585.33 3445.51 655.15 3445.51 741.27Z" />
					</g>
				</g>
			</g>
			<g id="&lt;Group&gt;" style="opacity: 0.149">
				<g id="&lt;Group&gt;">
					<g id="&lt;Group&gt;">
						<path id="&lt;Path&gt;" class="shp1" d="M3575.54 1095.72C3575.54 1181.85 3505.73 1251.66 3419.6 1251.66C3333.48 1251.66 3263.66 1181.85 3263.66 1095.72C3263.66 1009.6 3333.48 939.78 3419.6 939.78C3505.73 939.78 3575.54 1009.6 3575.54 1095.72Z" />
					</g>
				</g>
			</g>
			<g id="&lt;Group&gt;">
				<g id="&lt;Group&gt;">
					<path id="&lt;Path&gt;" class="shp3" d="M3449.47 2631.05L3433.81 2631.05L3368.16 2050.44L3362.78 2008.75L3414.43 2018.55L3417.29 2050.44L3449.47 2631.05Z" />
				</g>
			</g>
			<g id="&lt;Group&gt;">
				<g id="&lt;Group&gt;">
					<path id="&lt;Path&gt;" class="shp4" d="M2863.97 2072.69L2866.83 2040.81L2918.49 2031L2913.1 2072.69L2847.45 2653.31L2831.79 2653.31L2863.97 2072.69Z" />
				</g>
			</g>
			<g id="&lt;Group&gt;">
				<g id="&lt;Group&gt;">
					<path id="&lt;Path&gt;" class="shp0" d="M3102.37 2064.57L3105.23 2032.68L3156.89 2022.87L3151.5 2064.57L3085.85 2645.18L3070.19 2645.18L3102.37 2064.57Z" />
				</g>
			</g>
			<g id="&lt;Group&gt;">
				<g id="&lt;Group&gt;">
					<path id="&lt;Path&gt;" class="shp5" d="M3216.15 2072.69L3219.01 2040.81L3270.67 2031L3265.28 2072.69L3199.63 2653.31L3183.98 2653.31L3216.15 2072.69Z" />
				</g>
			</g>
			<g id="&lt;Group&gt;">
				<g id="&lt;Group&gt;">
					<path id="&lt;Path&gt;" class="shp0" d="M3551.33 1380.01L3380.25 1954.52L3355.3 2038.34L3351.05 2052.62L3349.8 2056.6L3273.19 2038.34L3102.7 1997.71L3115.63 1954.52L3271.1 1434.84C3281.31 1400.68 3312.68 1377.22 3348.34 1377.05L3537 1376.16L3539.11 1376.13L3551.33 1380.01Z" />
				</g>
			</g>
			<g id="&lt;Group&gt;" style="opacity: 0.161">
				<g id="&lt;Group&gt;">
					<g id="&lt;Group&gt;">
						<path id="&lt;Path&gt;" class="shp6" d="M3418.18 1954.52L3418.18 2038.34L3273.19 2038.34L3102.7 1997.71L3115.63 1954.52L3418.18 1954.52Z" />
					</g>
				</g>
			</g>
			<g id="&lt;Group&gt;">
				<g id="&lt;Group&gt;">
					<path id="&lt;Path&gt;" class="shp0" d="M2865.01 1994.9C2865.01 1992.06 2867.32 1989.75 2870.16 1989.75L3418.17 1989.75L3418.17 2073.56L2865.01 2073.56L2865.01 1994.9Z" />
				</g>
			</g>
			<g id="&lt;Group&gt;">
				<g id="&lt;Group&gt;">
					<path id="&lt;Path&gt;" class="shp0" d="M3537 1376.16L3537.19 1375.54L3539.11 1376.13L3551.33 1380.01L3564.86 1384.27C3593.86 1393.42 3610.17 1424.14 3601.49 1453.3L3416.85 2073.34L3351.05 2052.62L3336.91 2048.15L3537 1376.16Z" />
				</g>
			</g>
			<g id="&lt;Group&gt;">
				<g id="&lt;Group&gt;">
					<path id="&lt;Path&gt;" class="shp1" d="M1872.47 1669.66L1587.76 1669.66L1591.7 1624.35L1854.25 1624.35L1872.47 1669.66Z" />
				</g>
			</g>
			<g id="&lt;Group&gt;">
				<g id="&lt;Group&gt;">
					<path id="&lt;Path&gt;" class="shp1" d="M1638.91 1669.66L1224.63 1669.66L1129.16 1378.13L1543.44 1378.13L1638.91 1669.66Z" />
				</g>
			</g>
			<g id="&lt;Group&gt;" style="opacity: 0.231">
				<g id="&lt;Group&gt;">
					<path id="&lt;Path&gt;" class="shp2" d="M1393.98 1514.23C1399.32 1536.67 1385.45 1559.19 1363.01 1564.53C1340.57 1569.86 1318.05 1556 1312.71 1533.56C1307.37 1511.11 1321.24 1488.59 1343.68 1483.26C1366.12 1477.92 1388.65 1491.78 1393.98 1514.23Z" />
				</g>
			</g>
			<g id="&lt;Group&gt;">
				<g id="&lt;Group&gt;">
					<path id="&lt;Path&gt;" class="shp7" d="M2042.25 389.71L2042.25 1183.65C2042.25 1206.5 2024.88 1225.02 2003.45 1225.02L893.96 1225.02C872.52 1225.02 855.16 1206.5 855.16 1183.65L855.16 389.71C855.16 366.85 872.52 348.33 893.96 348.33L2003.45 348.33C2024.88 348.33 2042.25 366.85 2042.25 389.71Z" />
				</g>
			</g>
			<g id="&lt;Group&gt;" style="opacity: 0.561">
				<g id="&lt;Group&gt;">
					<g id="&lt;Group&gt;">
						<path id="&lt;Path&gt;" class="shp1" d="M1319.33 916.71L967.75 916.71C948.58 916.71 933.04 901.17 933.04 882.01L933.04 613.74C933.04 594.58 948.58 579.04 967.75 579.04L1319.33 579.04C1338.5 579.04 1354.04 594.58 1354.04 613.74L1354.04 882.01C1354.04 901.17 1338.5 916.71 1319.33 916.71Z" />
					</g>
				</g>
			</g>
			<g id="&lt;Group&gt;">
				<g id="&lt;Group&gt;">
					<path id="&lt;Path&gt;" class="shp1" d="M2042.25 387.13L2042.25 520.32L855.16 520.32L855.16 387.13C855.16 365.7 872.52 348.33 893.96 348.33L2003.45 348.33C2024.88 348.33 2042.25 365.7 2042.25 387.13Z" />
				</g>
			</g>
			<g id="&lt;Group&gt;" style="opacity: 0.239">
				<g id="&lt;Group&gt;">
					<g id="&lt;Group&gt;">
						<path id="&lt;Compound Path&gt;" fill-rule="evenodd" class="shp2" d="M1269.38 752.07C1269.38 800.62 1244.18 843.31 1206.15 867.75C1184.76 881.47 1159.32 889.45 1132.01 889.45C1056.14 889.45 994.63 827.94 994.63 752.07C994.63 676.21 1056.14 614.7 1132.01 614.7C1207.87 614.7 1269.38 676.21 1269.38 752.07ZM1224.27 752.07C1224.27 701.12 1182.96 659.8 1132.01 659.8C1081.05 659.8 1039.74 701.12 1039.74 752.07C1039.74 803.02 1081.05 844.34 1132.01 844.34C1147.92 844.34 1162.9 840.3 1175.99 833.2C1204.75 817.58 1224.27 787.09 1224.27 752.07Z" />
					</g>
				</g>
			</g>
			<g id="&lt;Group&gt;" style="opacity: 0.561">
				<g id="&lt;Group&gt;">
					<g id="&lt;Group&gt;">
						<path id="&lt;Path&gt;" class="shp2" d="M1177.42 881.76C1162.36 887.03 1146.1 889.76 1129.16 889.42C1053.93 887.9 993.32 824.83 994.65 749.59C995.81 684.15 1042.74 629.86 1104.79 617.39C1118.84 614.57 1132.01 625.15 1132.01 639.48L1132.01 639.48C1132.01 650.23 1124.41 659.48 1113.86 661.59C1069.51 670.44 1036.62 711.08 1039.97 758.74C1043.11 803.35 1078.59 839.74 1123.12 843.92C1136.98 845.22 1150.29 843.44 1162.46 839.19C1171.14 836.16 1180.8 838.72 1186.85 845.65L1186.85 845.65C1197.32 857.64 1192.45 876.5 1177.42 881.76Z" />
					</g>
				</g>
			</g>
			<g id="&lt;Group&gt;" style="opacity: 0.839">
				<g id="&lt;Group&gt;">
					<path id="&lt;Path&gt;" class="shp2" d="M992.53 459.49L927.52 459.49C924.62 459.49 922.27 457.14 922.27 454.24L922.27 414.41C922.27 411.51 924.62 409.16 927.52 409.16L992.53 409.16C995.43 409.16 997.78 411.51 997.78 414.41L997.78 454.24C997.78 457.14 995.43 459.49 992.53 459.49Z" />
				</g>
			</g>
			<g id="&lt;Group&gt;" style="opacity: 0.671">
				<g id="&lt;Group&gt;">
					<path id="&lt;Path&gt;" class="shp2" d="M1101.59 459.49L1036.58 459.49C1033.68 459.49 1031.33 457.14 1031.33 454.24L1031.33 414.41C1031.33 411.51 1033.68 409.16 1036.58 409.16L1101.59 409.16C1104.49 409.16 1106.84 411.51 1106.84 414.41L1106.84 454.24C1106.84 457.14 1104.49 459.49 1101.59 459.49Z" />
				</g>
			</g>
			<g id="&lt;Group&gt;" style="opacity: 0.412">
				<g id="&lt;Group&gt;">
					<path id="&lt;Path&gt;" class="shp2" d="M1204.36 459.49L1139.35 459.49C1136.45 459.49 1134.1 457.14 1134.1 454.24L1134.1 414.41C1134.1 411.51 1136.45 409.16 1139.35 409.16L1204.36 409.16C1207.26 409.16 1209.61 411.51 1209.61 414.41L1209.61 454.24C1209.61 457.14 1207.26 459.49 1204.36 459.49Z" />
				</g>
			</g>
			<g id="&lt;Group&gt;" style="opacity: 0.561">
				<g id="&lt;Group&gt;">
					<g id="&lt;Group&gt;">
						<path id="&lt;Path&gt;" class="shp1" d="M1515.02 730.05L1434.82 730.05C1427.43 730.05 1421.44 724.06 1421.44 716.67L1421.44 621.79C1421.44 614.4 1427.43 608.4 1434.82 608.4L1515.02 608.4C1522.41 608.4 1528.4 614.4 1528.4 621.79L1528.4 716.67C1528.4 724.06 1522.41 730.05 1515.02 730.05Z" />
					</g>
				</g>
			</g>
			<g id="&lt;Group&gt;" style="opacity: 0.561">
				<g id="&lt;Group&gt;">
					<g id="&lt;Group&gt;">
						<path id="&lt;Path&gt;" class="shp1" d="M1515.02 881.06L1434.82 881.06C1427.43 881.06 1421.44 875.07 1421.44 867.68L1421.44 772.79C1421.44 765.4 1427.43 759.41 1434.82 759.41L1515.02 759.41C1522.41 759.41 1528.4 765.4 1528.4 772.79L1528.4 867.68C1528.4 875.07 1522.41 881.06 1515.02 881.06Z" />
					</g>
				</g>
			</g>
			<g id="&lt;Group&gt;" style="opacity: 0.239">
				<g id="&lt;Group&gt;">
					<g id="&lt;Group&gt;">
						<path id="&lt;Path&gt;" class="shp1" d="M1923.08 698.59L1574.17 698.59C1565.11 698.59 1557.76 691.25 1557.76 682.19L1557.76 658.36C1557.76 649.3 1565.11 641.96 1574.17 641.96L1923.08 641.96C1932.14 641.96 1939.48 649.3 1939.48 658.36L1939.48 682.19C1939.48 691.25 1932.14 698.59 1923.08 698.59Z" />
					</g>
				</g>
			</g>
			<g id="&lt;Group&gt;" style="opacity: 0.239">
				<g id="&lt;Group&gt;">
					<g id="&lt;Group&gt;">
						<path id="&lt;Path&gt;" class="shp1" d="M1736.41 698.59L1574.17 698.59C1565.11 698.59 1557.76 691.25 1557.76 682.19L1557.76 658.36C1557.76 649.3 1565.11 641.96 1574.17 641.96L1736.41 641.96C1745.47 641.96 1752.82 649.3 1752.82 658.36L1752.82 682.19C1752.82 691.25 1745.47 698.59 1736.41 698.59Z" />
					</g>
				</g>
			</g>
			<g id="&lt;Group&gt;" style="opacity: 0.239">
				<g id="&lt;Group&gt;">
					<g id="&lt;Group&gt;">
						<path id="&lt;Path&gt;" class="shp1" d="M1927.27 849.6L1578.36 849.6C1569.3 849.6 1561.96 842.25 1561.96 833.19L1561.96 809.37C1561.96 800.31 1569.3 792.97 1578.36 792.97L1927.27 792.97C1936.33 792.97 1943.67 800.31 1943.67 809.37L1943.67 833.19C1943.67 842.25 1936.33 849.6 1927.27 849.6Z" />
					</g>
				</g>
			</g>
			<g id="&lt;Group&gt;" style="opacity: 0.239">
				<g id="&lt;Group&gt;">
					<g id="&lt;Group&gt;">
						<path id="&lt;Path&gt;" class="shp1" d="M1839.18 849.6L1578.36 849.6C1569.3 849.6 1561.96 842.25 1561.96 833.19L1561.96 809.37C1561.96 800.31 1569.3 792.97 1578.36 792.97L1839.18 792.97C1848.24 792.97 1855.59 800.31 1855.59 809.37L1855.59 833.19C1855.59 842.25 1848.24 849.6 1839.18 849.6Z" />
					</g>
				</g>
			</g>
			<g id="&lt;Group&gt;" style="opacity: 0.239">
				<g id="&lt;Group&gt;">
					<g id="&lt;Group&gt;">
						<path id="&lt;Path&gt;" class="shp1" d="M1927.27 1029.97L949.16 1029.97C940.1 1029.97 932.76 1022.62 932.76 1013.57L932.76 989.74C932.76 980.68 940.1 973.34 949.16 973.34L1927.27 973.34C1936.33 973.34 1943.67 980.68 1943.67 989.74L1943.67 1013.57C1943.67 1022.62 1936.33 1029.97 1927.27 1029.97Z" />
					</g>
				</g>
			</g>
			<g id="&lt;Group&gt;" style="opacity: 0.239">
				<g id="&lt;Group&gt;">
					<g id="&lt;Group&gt;">
						<path id="&lt;Path&gt;" class="shp1" d="M1419.72 1029.97L949.16 1029.97C940.1 1029.97 932.76 1022.62 932.76 1013.57L932.76 989.74C932.76 980.68 940.1 973.34 949.16 973.34L1419.72 973.34C1428.77 973.34 1436.12 980.68 1436.12 989.74L1436.12 1013.57C1436.12 1022.62 1428.77 1029.97 1419.72 1029.97Z" />
					</g>
				</g>
			</g>
			<g id="&lt;Group&gt;" style="opacity: 0.239">
				<g id="&lt;Group&gt;">
					<g id="&lt;Group&gt;">
						<path id="&lt;Path&gt;" class="shp1" d="M1925.17 1134.83L947.06 1134.83C938 1134.83 930.66 1127.49 930.66 1118.43L930.66 1094.61C930.66 1085.55 938 1078.21 947.06 1078.21L1925.17 1078.21C1934.23 1078.21 1941.58 1085.55 1941.58 1094.61L1941.58 1118.43C1941.58 1127.49 1934.23 1134.83 1925.17 1134.83Z" />
					</g>
				</g>
			</g>
			<g id="&lt;Group&gt;" style="opacity: 0.239">
				<g id="&lt;Group&gt;">
					<g id="&lt;Group&gt;">
						<path id="&lt;Path&gt;" class="shp1" d="M1574.92 1134.83L947.06 1134.83C938 1134.83 930.66 1127.49 930.66 1118.43L930.66 1094.61C930.66 1085.55 938 1078.21 947.06 1078.21L1574.92 1078.21C1583.98 1078.21 1591.32 1085.55 1591.32 1094.61L1591.32 1118.43C1591.32 1127.49 1583.98 1134.83 1574.92 1134.83Z" />
					</g>
				</g>
			</g>
			<g id="&lt;Group&gt;">
				<g id="&lt;Group&gt;">
					<path id="&lt;Path&gt;" class="shp2" d="M1465.48 686.32C1463.78 686.32 1462.09 685.67 1460.81 684.39L1446.13 669.7C1443.55 667.12 1443.55 662.94 1446.13 660.36C1448.71 657.78 1452.89 657.78 1455.47 660.36L1466.1 670.99L1503.46 642.97C1506.39 640.78 1510.52 641.37 1512.71 644.29C1514.9 647.21 1514.31 651.35 1511.39 653.54L1469.45 685C1468.26 685.89 1466.87 686.32 1465.48 686.32Z" />
				</g>
			</g>
			<g id="&lt;Group&gt;">
				<g id="&lt;Group&gt;">
					<path id="&lt;Path&gt;" class="shp2" d="M1465.48 841.52C1463.78 841.52 1462.09 840.87 1460.81 839.59L1446.13 824.91C1443.55 822.33 1443.55 818.14 1446.13 815.56C1448.71 812.98 1452.89 812.98 1455.47 815.56L1466.1 826.19L1503.46 798.17C1506.39 795.98 1510.52 796.57 1512.71 799.49C1514.9 802.41 1514.31 806.55 1511.39 808.74L1469.45 840.2C1468.26 841.09 1466.87 841.52 1465.48 841.52Z" />
				</g>
			</g>
			<g id="&lt;Group&gt;">
				<g id="&lt;Group&gt;">
					<path id="&lt;Path&gt;" class="shp1" d="M3077.57 734.98C3077.57 806.71 3019.43 864.85 2947.7 864.85C2875.98 864.85 2817.83 806.71 2817.83 734.98C2817.83 663.26 2875.98 605.11 2947.7 605.11C3019.43 605.11 3077.57 663.26 3077.57 734.98Z" />
				</g>
			</g>
			<g id="&lt;Group&gt;">
				<g id="&lt;Group&gt;">
					<path id="&lt;Path&gt;" class="shp1" d="M3418.69 742.47C3418.69 814.19 3360.55 872.34 3288.83 872.34C3217.1 872.34 3158.96 814.19 3158.96 742.47C3158.96 670.74 3217.1 612.6 3288.83 612.6C3360.55 612.6 3418.69 670.74 3418.69 742.47Z" />
				</g>
			</g>
			<g id="&lt;Group&gt;">
				<g id="&lt;Group&gt;">
					<path id="&lt;Path&gt;" class="shp1" d="M3548.56 1095.15C3548.56 1166.88 3490.42 1225.02 3418.69 1225.02C3346.97 1225.02 3288.83 1166.88 3288.83 1095.15C3288.83 1023.43 3346.97 965.28 3418.69 965.28C3490.42 965.28 3548.56 1023.43 3548.56 1095.15Z" />
				</g>
			</g>
			<g id="&lt;Group&gt;">
				<g id="&lt;Group&gt;">
					<path id="&lt;Compound Path&gt;" class="shp2" d="M2923.61 728.26L2895.92 738.07L2923.61 747.88L2923.61 760.55L2880.82 744.75L2880.82 731.39L2923.61 715.59L2923.61 728.26Z" />
				</g>
				<g id="&lt;Group&gt;">
					<path id="&lt;Compound Path&gt;" class="shp2" d="M2954.07 695.37L2968.74 695.37L2940.1 777.12L2925.43 777.12L2954.07 695.37Z" />
				</g>
				<g id="&lt;Group&gt;">
					<path id="&lt;Compound Path&gt;" class="shp2" d="M3012.48 731.39L3012.48 744.75L2969.69 760.55L2969.69 747.88L2997.38 738.07L2969.69 728.26L2969.69 715.59L3012.48 731.39Z" />
				</g>
			</g>
			<g id="&lt;Group&gt;">
				<g id="&lt;Group&gt;">
					<path id="&lt;Compound Path&gt;" class="shp2" d="M3245.24 724.07L3245.24 768.99L3232.53 768.99L3232.53 751.47L3215.21 751.47L3215.21 768.99L3202.5 768.99L3202.5 724.07L3215.21 724.07L3215.21 740.95L3232.53 740.95L3232.53 724.07L3245.24 724.07Z" />
				</g>
				<g id="&lt;Group&gt;">
					<path id="&lt;Compound Path&gt;" class="shp2" d="M3263.79 734.15L3249.99 734.15L3249.99 724.07L3290.22 724.07L3290.22 734.15L3276.49 734.15L3276.49 768.99L3263.79 768.99L3263.79 734.15Z" />
				</g>
				<g id="&lt;Group&gt;">
					<path id="&lt;Compound Path&gt;" class="shp2" d="M3335.52 768.99L3335.4 745.19L3323.85 764.56L3318.2 764.56L3306.71 745.83L3306.71 768.99L3294.97 768.99L3294.97 724.07L3305.43 724.07L3321.22 750L3336.62 724.07L3347.08 724.07L3347.2 768.99L3335.52 768.99Z" />
				</g>
				<g id="&lt;Group&gt;">
					<path id="&lt;Compound Path&gt;" class="shp2" d="M3356.19 724.07L3368.89 724.07L3368.89 758.92L3390.32 758.92L3390.32 768.99L3356.19 768.99L3356.19 724.07Z" />
				</g>
			</g>
			<g id="&lt;Group&gt;">
				<g id="&lt;Group&gt;">
					<path id="&lt;Compound Path&gt;" class="shp2" d="M3354.3 1125.84C3349.54 1123.32 3345.81 1119.8 3343.09 1115.28C3340.37 1110.77 3339.01 1105.66 3339.01 1099.96C3339.01 1094.25 3340.37 1089.14 3343.09 1084.63C3345.81 1080.12 3349.54 1076.6 3354.3 1074.07C3359.06 1071.55 3364.42 1070.28 3370.4 1070.28C3375.62 1070.28 3380.32 1071.21 3384.51 1073.05C3388.69 1074.9 3392.17 1077.57 3394.94 1081.04L3384.67 1090.34C3380.97 1085.88 3376.49 1083.65 3371.22 1083.65C3368.12 1083.65 3365.36 1084.33 3362.94 1085.69C3360.52 1087.05 3358.65 1088.97 3357.32 1091.44C3355.98 1093.91 3355.32 1096.75 3355.32 1099.96C3355.32 1103.17 3355.98 1106 3357.32 1108.48C3358.65 1110.95 3360.52 1112.87 3362.94 1114.22C3365.36 1115.58 3368.12 1116.26 3371.22 1116.26C3376.49 1116.26 3380.97 1114.03 3384.67 1109.58L3394.94 1118.87C3392.17 1122.35 3388.69 1125.01 3384.51 1126.86C3380.32 1128.71 3375.62 1129.63 3370.4 1129.63C3364.42 1129.63 3359.06 1128.37 3354.3 1125.84Z" />
				</g>
				<g id="&lt;Group&gt;">
					<path id="&lt;Compound Path&gt;" class="shp2" d="M3440.68 1105.91L3426.9 1105.91L3426.9 1119.36L3414.34 1119.36L3414.34 1105.91L3400.48 1105.91L3400.48 1094.01L3414.34 1094.01L3414.34 1080.56L3426.9 1080.56L3426.9 1094.01L3440.68 1094.01L3440.68 1105.91Z" />
				</g>
				<g id="&lt;Group&gt;">
					<path id="&lt;Compound Path&gt;" class="shp2" d="M3490.98 1105.91L3477.2 1105.91L3477.2 1119.36L3464.64 1119.36L3464.64 1105.91L3450.78 1105.91L3450.78 1094.01L3464.64 1094.01L3464.64 1080.56L3477.2 1080.56L3477.2 1094.01L3490.98 1094.01L3490.98 1105.91Z" />
				</g>
			</g>
			<g id="&lt;Group&gt;">
				<g id="&lt;Group&gt;">
					<path id="&lt;Path&gt;" class="shp1" d="M890.81 2579.9L888.71 2420.5L901.3 2579.9L890.81 2579.9Z" />
				</g>
			</g>
			<g id="&lt;Group&gt;">
				<g id="&lt;Group&gt;">
					<path id="&lt;Path&gt;" class="shp8" d="M880.79 2406.32C850.1 2301.96 834.75 2139.28 834.75 1918.28C853.17 1973.53 874.66 2117.79 899.21 2351.07L880.79 2406.32Z" />
				</g>
			</g>
			<g id="&lt;Group&gt;">
				<g id="&lt;Group&gt;">
					<path id="&lt;Path&gt;" class="shp9" d="M866.93 2415.53C871.73 2015.54 889.48 1803.27 920.17 1778.72C933.79 2055.92 937.53 2258.99 931.39 2387.9L866.93 2415.53Z" />
				</g>
			</g>
			<g id="&lt;Group&gt;">
				<g id="&lt;Group&gt;">
					<path id="&lt;Path&gt;" class="shp10" d="M896.52 2387.9C903.37 2420.9 923.3 2525.58 876.14 2415.53C875.08 2413.04 874.01 2410.47 872.94 2407.81C836.6 2317.63 797.76 2154.46 756.43 1918.28C793.27 1973.53 903.77 2351.07 894.56 2378.69C895.08 2381.06 895.74 2384.13 896.52 2387.9Z" />
				</g>
			</g>
			<g id="&lt;Group&gt;">
				<g id="&lt;Group&gt;">
					<path id="&lt;Path&gt;" class="shp11" d="M908.35 2515.71C917.2 2548.23 943.47 2651.5 889.69 2544.53C888.48 2542.11 887.26 2539.61 886.02 2537.02C844.27 2449.22 803.92 2297.83 764.97 2082.83C805.1 2135.74 913.34 2478.51 905.83 2506.64C906.5 2508.97 907.34 2512 908.35 2515.71Z" />
				</g>
			</g>
			<g id="&lt;Group&gt;">
				<g id="&lt;Group&gt;">
					<path id="&lt;Path&gt;" class="shp12" d="M916.61 2323.44C941.17 2090.17 962.65 1945.9 981.07 1890.65C981.07 2111.65 965.72 2274.33 935.03 2378.69L916.61 2323.44Z" />
				</g>
			</g>
			<g id="&lt;Group&gt;">
				<g id="&lt;Group&gt;">
					<path id="&lt;Path&gt;" class="shp13" d="M906.58 2351.07C897.38 2323.44 1007.88 1945.9 1044.71 1890.65C1003.38 2126.83 964.54 2290.01 928.21 2380.18C927.13 2382.84 926.07 2385.42 925 2387.9C877.84 2497.95 897.77 2393.28 904.62 2360.28C905.4 2356.51 906.06 2353.44 906.58 2351.07Z" />
				</g>
			</g>
			<g id="&lt;Group&gt;">
				<g id="&lt;Group&gt;">
					<path id="&lt;Path&gt;" class="shp1" d="M995.85 2314.23L969.57 2620.92L968.22 2636.53L802.47 2636.53L782.84 2407.56L774.85 2314.23L995.85 2314.23Z" />
				</g>
			</g>
			<g id="&lt;Group&gt;" style="opacity: 0.09">
				<g id="&lt;Group&gt;">
					<g id="&lt;Group&gt;">
						<path id="&lt;Path&gt;" class="shp6" d="M969.57 2620.92L968.22 2636.53L802.47 2636.53L782.84 2407.56C804.63 2485.31 845.22 2580.49 915.98 2600.87C935.44 2606.47 953.29 2613.33 969.57 2620.92Z" />
					</g>
				</g>
			</g>
			<g id="&lt;Group&gt;">
				<g id="&lt;Group&gt;">
					<g id="&lt;Group&gt;">
						<path id="&lt;Path&gt;" class="shp14" d="M2998.72 1007.18L3029.21 992.07C3058.4 939.54 3087.59 927.86 3116.78 957.05C3128.45 945.37 3140.13 948.29 3151.8 965.81C3169.32 992.07 3151.8 1027.1 3055.48 1035.86L3033.19 1046.67L2998.72 1007.18Z" />
					</g>
				</g>
				<g id="&lt;Group&gt;">
					<g id="&lt;Group&gt;">
						<path id="&lt;Path&gt;" class="shp0" d="M3046.74 1053.37C3039.44 1059.14 3029.8 1066.56 3017.83 1075.62C2957.16 1121.57 2816.61 1223.76 2749.01 1237.25C2725.62 1241.92 2696.09 1234.71 2665.36 1221.62C2658.61 1218.75 2651.79 1215.6 2645 1212.2C2637.07 1208.28 2629.14 1204.07 2621.3 1199.64C2574.79 1173.45 2530.26 1142.09 2487.71 1105.55L2565.13 922.03L2740.26 1097.16L2970.73 1004.94L3002.94 992.08L3046.74 1053.37Z" />
					</g>
				</g>
				<g id="&lt;Group&gt;" style="opacity: 0.329">
					<g id="&lt;Group&gt;">
						<g id="&lt;Group&gt;">
							<path id="&lt;Path&gt;" class="shp15" d="M2648.77 1212.2C2640.85 1208.28 2632.92 1204.07 2625.07 1199.64L2627.78 1113.06L2648.77 1212.2Z" />
						</g>
					</g>
				</g>
				<g id="&lt;Group&gt;">
					<g id="&lt;Group&gt;">
						<path id="&lt;Path&gt;" class="shp16" d="M3046.73 1053.37C3039.43 1059.15 3029.8 1066.56 3017.83 1075.61L2970.72 1004.95L3002.94 992.07L3046.73 1053.37Z" />
					</g>
				</g>
				<g id="&lt;Group&gt;">
					<g id="&lt;Group&gt;">
						<path id="&lt;Path&gt;" class="shp14" d="M2096.06 1363.71L2056.92 1368.92C2044.6 1373.25 2022.87 1382.26 1991.71 1395.96L1973.36 1331.85C1946.19 1337.23 1912.55 1324.14 1949.5 1311.17C1986.45 1298.2 2018.3 1302.24 2045.05 1323.29L2072.76 1305.55L2096.06 1363.71Z" />
					</g>
				</g>
				<g id="&lt;Group&gt;">
					<g id="&lt;Group&gt;">
						<path id="&lt;Path&gt;" class="shp1" d="M2006.25 1440.35L1903.16 1470.5L1843.89 1266.46L1946.97 1236.31L2006.25 1440.35Z" />
					</g>
				</g>
				<g id="&lt;Group&gt;">
					<g id="&lt;Group&gt;">
						<path id="&lt;Path&gt;" class="shp0" d="M2357.17 1089.25L2326.34 1332.47L2309.56 1335.57L2303.4 1336.73L2271.72 1342.6L2145.38 1366.09L2100.35 1374.44L2066.81 1290.75L2107.56 1273.13L2272.27 1202.05L2298.38 1107.17L2333.3 980.29L2357.17 1089.25Z" />
					</g>
				</g>
				<g id="&lt;Group&gt;" style="opacity: 0.329">
					<g id="&lt;Group&gt;">
						<g id="&lt;Group&gt;">
							<path id="&lt;Path&gt;" class="shp15" d="M2307.86 1247.94C2305.33 1299.94 2303.84 1329.54 2303.4 1336.73L2271.72 1342.6L2307.86 1247.94Z" />
						</g>
					</g>
				</g>
				<g id="&lt;Group&gt;">
					<g id="&lt;Group&gt;">
						<path id="&lt;Path&gt;" class="shp16" d="M2145.37 1366.1L2100.35 1374.43L2066.83 1290.74L2107.55 1273.13L2145.37 1366.1Z" />
					</g>
				</g>
				<g id="&lt;Group&gt;">
					<g id="&lt;Group&gt;">
						<g id="&lt;Group&gt;">
							<g id="&lt;Group&gt;">
								<g id="&lt;Group&gt;">
									<g id="&lt;Group&gt;">
										<path id="&lt;Path&gt;" class="shp14" d="M2602.94 2563.23L2590.24 2450.7L2670.1 2447.07L2670.1 2548.71L2602.94 2563.23Z" />
									</g>
								</g>
								<g id="&lt;Group&gt;">
									<g id="&lt;Group&gt;">
										<path id="&lt;Path&gt;" class="shp1" d="M2480.17 2620.85C2485.01 2603.39 2502.76 2580.78 2561.48 2578.5C2562.97 2578.4 2564.46 2578.37 2565.95 2578.34C2573.58 2564.98 2583.21 2555.08 2594.87 2548.63C2600.3 2545.6 2606.22 2543.58 2612.66 2543.44C2630.72 2543.05 2651.05 2542.61 2673.64 2542.13C2678.16 2569.69 2682.76 2594.45 2687.43 2616.4C2687.96 2618.69 2688.41 2620.92 2688.93 2623.15L2689.23 2636.7L2479.18 2641.21C2477.69 2635.14 2478.02 2628.35 2480.17 2620.85Z" />
									</g>
								</g>
								<g id="&lt;Group&gt;">
									<g id="&lt;Group&gt;">
										<path id="&lt;Path&gt;" class="shp17" d="M2480.17 2620.85L2687.43 2616.4C2687.96 2618.69 2688.41 2620.92 2688.93 2623.15L2689.23 2636.7L2479.18 2641.21C2477.69 2635.14 2478.02 2628.35 2480.17 2620.85Z" />
									</g>
								</g>
								<g id="&lt;Group&gt;" style="opacity: 0.251">
									<g id="&lt;Group&gt;">
										<g id="&lt;Group&gt;">
											<path id="&lt;Path&gt;" class="shp2" d="M2565.95 2578.34C2573.58 2564.98 2583.21 2555.08 2594.87 2548.63C2603.04 2556.66 2610.18 2566.81 2606.46 2570.69C2600.1 2577.33 2587.23 2571.64 2586.21 2571.19C2587.45 2572.45 2599.65 2584.73 2593.35 2591.31C2588.91 2595.94 2572.22 2585.79 2561.48 2578.5C2562.97 2578.4 2564.46 2578.37 2565.95 2578.34Z" />
										</g>
									</g>
								</g>
								<g id="&lt;Group&gt;">
									<g id="&lt;Group&gt;">
										<path id="&lt;Path&gt;" class="shp14" d="M2235.75 2546.64L2243.83 2433.68L2323.01 2444.71L2304.43 2544.64L2235.75 2546.64Z" />
									</g>
								</g>
								<g id="&lt;Group&gt;">
									<g id="&lt;Group&gt;">
										<path id="&lt;Path&gt;" class="shp1" d="M2104.48 2580.49C2112.49 2564.24 2134.13 2545.32 2192.25 2554.01C2193.74 2554.19 2195.21 2554.43 2196.68 2554.68C2206.65 2542.97 2217.96 2535.04 2230.62 2530.88C2236.51 2528.91 2242.71 2528.02 2249.06 2529.08C2266.88 2532.06 2286.93 2535.42 2309.22 2539.14C2308.53 2567.06 2308.45 2592.24 2308.95 2614.68C2309.04 2617.03 2309.07 2619.31 2309.17 2621.59L2306.94 2634.96L2099.72 2600.31C2099.39 2594.07 2100.97 2587.46 2104.48 2580.49Z" />
									</g>
								</g>
								<g id="&lt;Group&gt;">
									<g id="&lt;Group&gt;">
										<path id="&lt;Path&gt;" class="shp17" d="M2104.51 2580.85L2309.1 2614.35C2309.2 2616.7 2309.24 2618.98 2309.34 2621.26L2307.15 2634.64L2099.82 2600.68C2099.47 2594.44 2101.03 2587.83 2104.51 2580.85Z" />
									</g>
								</g>
								<g id="&lt;Group&gt;" style="opacity: 0.251">
									<g id="&lt;Group&gt;">
										<g id="&lt;Group&gt;">
											<path id="&lt;Path&gt;" class="shp2" d="M2196.62 2554.73C2206.56 2542.99 2217.84 2535.01 2230.48 2530.81C2237.05 2540.2 2242.21 2551.48 2237.85 2554.61C2230.38 2559.98 2218.76 2552.04 2217.84 2551.4C2218.83 2552.87 2228.58 2567.17 2221.19 2572.49C2215.97 2576.23 2201.42 2563.2 2192.2 2554.07C2193.68 2554.25 2195.15 2554.49 2196.62 2554.73Z" />
										</g>
									</g>
								</g>
								<g id="&lt;Group&gt;">
									<g id="&lt;Group&gt;">
										<path id="&lt;Path&gt;" class="shp1" d="M2303.8 1373.4L2524.41 1343.92C2552.95 1400.96 2491.78 1778.77 2340.89 2477.34L2216.59 2478.47L2303.8 1373.4Z" />
									</g>
								</g>
								<g id="&lt;Group&gt;">
									<g id="&lt;Group&gt;">
										<path id="&lt;Path&gt;" class="shp1" d="M2351.22 1451.38L2537.58 1344.22L2629.48 1409.52C2630.62 1415.35 2631.6 1421.65 2632.44 1428.46C2634.81 1447.58 2630.92 1438.18 2631.26 1463.83C2632.64 1569.24 2652.16 1909.12 2689.82 2483.48L2562.81 2484.44L2351.22 1451.38Z" />
									</g>
								</g>
								<g id="&lt;Group&gt;">
									<g id="&lt;Group&gt;">
										<path id="&lt;Path&gt;" class="shp0" d="M2634.68 1472.98C2630.98 1477.74 2626.06 1481.93 2619.49 1484.1C2618.22 1484.52 2616.93 1484.8 2615.64 1485.06L2548.03 1498.23C2486.42 1509.63 2392.26 1520.65 2303.64 1492.47C2292.48 1488.91 2285.48 1477.84 2287.19 1466.24C2292.58 1429.63 2303.73 1346.83 2307.07 1268.21C2307.3 1263.12 2307.48 1258.04 2307.61 1253.02C2307.69 1250.36 2307.76 1247.69 2307.82 1245.06C2308.57 1210.2 2304.4 1177.45 2301.06 1145.31C2300.16 1136.46 2299.3 1127.67 2298.63 1118.87C2293.95 1058.14 2298.01 998.25 2350.25 929.03C2370.69 907.01 2385.63 894.42 2395.06 891.28L2472.89 888.93C2557.53 894.47 2607.12 934.5 2621.66 1009.04C2623.08 1016.41 2624.2 1024.22 2624.92 1032.53C2634.21 1138.41 2618.51 1297.76 2633.13 1390.39C2636.03 1408.84 2638.98 1424.57 2641.92 1436.57C2645.03 1449.17 2642.62 1462.71 2634.68 1472.98Z" />
									</g>
								</g>
								<g id="&lt;Group&gt;">
									<g id="&lt;Group&gt;">
										<path id="&lt;Path&gt;" class="shp2" d="M2382.58 1510.76C2382.43 1510.2 2367.08 1452.54 2363.48 1280.06C2359.89 1107.64 2385.03 943.77 2385.28 942.13L2389.02 942.71C2388.76 944.35 2363.67 1107.91 2367.26 1279.98C2370.84 1451.82 2386.07 1509.2 2386.22 1509.76L2382.58 1510.76Z" />
									</g>
								</g>
								<g id="&lt;Group&gt;" style="opacity: 0.169">
									<g id="&lt;Group&gt;">
										<g id="&lt;Group&gt;">
											<path id="&lt;Path&gt;" class="shp15" d="M2241.4 2467.69L2317.02 2476.9L2239.49 2494.4L2241.4 2467.69Z" />
										</g>
									</g>
								</g>
								<g id="&lt;Group&gt;" style="opacity: 0.169">
									<g id="&lt;Group&gt;">
										<g id="&lt;Group&gt;">
											<path id="&lt;Path&gt;" class="shp15" d="M2593.93 2483.38L2670.1 2483.38L2596.95 2510.12L2593.93 2483.38Z" />
										</g>
									</g>
								</g>
								<g id="&lt;Group&gt;">
									<g id="&lt;Group&gt;">
										<path id="&lt;Path&gt;" class="shp14" d="M2483.41 776.01L2474.07 888.93C2475 904.46 2468.84 916.2 2455.62 924.16L2437.08 935.31C2422.22 944.25 2404.05 945.8 2387.89 939.51L2387.89 939.51C2372.45 933.5 2367.96 913.8 2379.27 901.7L2379.27 901.7L2382.26 886.48L2396.32 814.52L2400.14 794.99L2483.41 776.01Z" />
									</g>
								</g>
								<g id="&lt;Group&gt;" style="opacity: 0.2">
									<g id="&lt;Group&gt;">
										<g id="&lt;Group&gt;">
											<path id="&lt;Path&gt;" class="shp15" d="M2458.56 819.71C2434.01 865.53 2393.54 882.49 2382.26 886.48L2396.32 814.52C2421.84 802.31 2481.35 777.11 2458.56 819.71Z" />
										</g>
									</g>
								</g>
								<g id="&lt;Group&gt;">
									<g id="&lt;Group&gt;">
										<path id="&lt;Path&gt;" class="shp14" d="M2462.26 636.81C2536.58 663.87 2523.52 760.38 2503.53 772.14C2462.08 832.65 2421.09 863.6 2380.56 864.96C2344.89 866.17 2306 818.12 2314.16 738.66C2314.47 735.67 2314.67 732.66 2314.8 729.66C2318.45 647.76 2389.27 610.25 2462.26 636.81Z" />
									</g>
								</g>
								<g id="&lt;Group&gt;">
									<g id="&lt;Group&gt;">
										<path id="&lt;Path&gt;" class="shp2" d="M2477.9 907.94L2405.3 966.02L2388.26 938.99L2477.9 887.97L2477.9 907.94Z" />
									</g>
								</g>
								<g id="&lt;Group&gt;">
									<g id="&lt;Group&gt;">
										<path id="&lt;Path&gt;" class="shp2" d="M2388.04 940.16L2361.74 952.11L2370.82 909.75L2379.89 900.68L2388.04 940.16Z" />
									</g>
								</g>
								<g id="&lt;Group&gt;">
									<g id="&lt;Group&gt;">
										<path id="&lt;Path&gt;" class="shp18" d="M2463.34 752.02C2453.49 708.35 2448.57 686.51 2448.56 686.5C2448.5 686.24 2391.83 685.35 2386.92 684.92C2347.34 681.44 2324.76 682.16 2291.86 658.23C2255.8 632 2273.31 598.89 2286.36 573.05C2295.27 555.42 2318.05 566.99 2331.74 570.77C2360.92 578.82 2391.49 574.25 2421.26 576.95C2439.76 578.63 2458.07 584.75 2473.91 594.34C2496.58 608.08 2515.8 633.45 2514.4 660.95C2514.35 662.02 2512.44 670.27 2513.01 670.88C2513.01 670.88 2552.45 713.79 2508.24 751.69C2490.49 734.2 2475.52 734.31 2463.34 752.02Z" />
									</g>
								</g>
								<g id="&lt;Group&gt;">
									<g id="&lt;Group&gt;">
										<path id="&lt;Path&gt;" class="shp14" d="M2519.65 749.13C2519.65 767.67 2504.61 782.7 2486.07 782.7C2467.52 782.7 2452.49 767.67 2452.49 749.13C2452.49 730.58 2467.52 715.55 2486.07 715.55C2504.61 715.55 2519.65 730.58 2519.65 749.13Z" />
									</g>
								</g>
								<g id="&lt;Group&gt;" style="opacity: 0.2">
									<g id="&lt;Group&gt;">
										<g id="&lt;Group&gt;">
											<path id="&lt;Path&gt;" class="shp15" d="M2350.38 1291.84C2350.48 1291.89 2350.66 1291.99 2350.92 1292.09C2350.64 1291.99 2350.48 1291.91 2350.38 1291.84Z" />
										</g>
									</g>
								</g>
							</g>
						</g>
					</g>
					<g id="&lt;Group&gt;" style="opacity: 0.212">
						<g id="&lt;Group&gt;">
							<g id="&lt;Group&gt;">
								<path id="&lt;Path&gt;" class="shp6" d="M2433.49 2022.59L2415.94 1689.84L2451.6 1931.05L2433.49 2022.59Z" />
							</g>
						</g>
					</g>
				</g>
			</g>
			<g id="&lt;Group&gt;">
				<g id="&lt;Group&gt;" style="opacity: 0.4">
					<g id="&lt;Group&gt;">
						<g id="&lt;Group&gt;">
							<path id="&lt;Path&gt;" class="shp19" d="M803.17 1426.16C803.17 1456.35 778.7 1480.82 748.52 1480.82C718.33 1480.82 693.86 1456.35 693.86 1426.16C693.86 1395.98 718.33 1371.51 748.52 1371.51C778.7 1371.51 803.17 1395.98 803.17 1426.16Z" />
						</g>
					</g>
				</g>
				<g id="&lt;Group&gt;">
					<g id="&lt;Group&gt;">
						<path id="&lt;Compound Path&gt;" fill-rule="evenodd" class="shp20" d="M749.31 1530.08C718.65 1530.08 693.71 1505.14 693.71 1474.48C693.71 1443.82 718.65 1418.88 749.31 1418.88C779.97 1418.88 804.91 1443.82 804.91 1474.48C804.91 1505.14 779.97 1530.08 749.31 1530.08ZM749.31 1420.77C719.69 1420.77 695.6 1444.87 695.6 1474.48C695.6 1504.1 719.69 1528.19 749.31 1528.19C778.92 1528.19 803.02 1504.1 803.02 1474.48C803.02 1444.87 778.92 1420.77 749.31 1420.77Z" />
					</g>
				</g>
			</g>
			<g id="&lt;Group&gt;">
				<g id="&lt;Group&gt;" style="opacity: 0.361">
					<g id="&lt;Group&gt;">
						<g id="&lt;Group&gt;">
							<path id="&lt;Path&gt;" class="shp1" d="M1803.69 2007.6C1803.69 2037.78 1779.22 2062.25 1749.04 2062.25C1718.85 2062.25 1694.38 2037.78 1694.38 2007.6C1694.38 1977.41 1718.85 1952.94 1749.04 1952.94C1779.22 1952.94 1803.69 1977.41 1803.69 2007.6Z" />
						</g>
					</g>
				</g>
				<g id="&lt;Group&gt;">
					<g id="&lt;Group&gt;">
						<path id="&lt;Compound Path&gt;" fill-rule="evenodd" class="shp20" d="M1749.83 2111.51C1719.17 2111.51 1694.23 2086.57 1694.23 2055.92C1694.23 2025.26 1719.17 2000.32 1749.83 2000.32C1780.48 2000.32 1805.43 2025.26 1805.43 2055.92C1805.43 2086.57 1780.48 2111.51 1749.83 2111.51ZM1749.83 2002.2C1720.21 2002.2 1696.12 2026.3 1696.12 2055.92C1696.12 2085.53 1720.21 2109.63 1749.83 2109.63C1779.44 2109.63 1803.54 2085.53 1803.54 2055.92C1803.54 2026.3 1779.44 2002.2 1749.83 2002.2Z" />
					</g>
				</g>
			</g>
			<g id="&lt;Group&gt;" style="opacity: 0.278">
				<g id="&lt;Group&gt;">
					<g id="&lt;Group&gt;">
					</g>
				</g>
			</g>
			<g id="&lt;Group&gt;">
				<g id="&lt;Group&gt;">
					<path id="&lt;Compound Path&gt;" fill-rule="evenodd" class="shp20" d="M3760.6 1837.78C3730.26 1837.78 3705.39 1813.29 3705.01 1782.87C3704.63 1752.21 3729.26 1726.97 3759.92 1726.59C3760.15 1726.58 3760.39 1726.58 3760.62 1726.58C3790.96 1726.58 3815.82 1751.07 3816.2 1781.49C3816.39 1796.34 3810.78 1810.38 3800.4 1821.01C3790.03 1831.64 3776.14 1837.59 3761.29 1837.78C3761.06 1837.78 3760.83 1837.78 3760.6 1837.78ZM3760.62 1728.47C3760.39 1728.47 3760.17 1728.47 3759.94 1728.47C3730.33 1728.84 3706.53 1753.23 3706.9 1782.85C3707.26 1812.23 3731.29 1835.89 3760.6 1835.89C3760.82 1835.89 3761.04 1835.89 3761.27 1835.89C3775.62 1835.71 3789.03 1829.96 3799.05 1819.69C3809.07 1809.42 3814.49 1795.86 3814.31 1781.52C3813.95 1752.13 3789.92 1728.47 3760.62 1728.47Z" />
				</g>
			</g>
			<g id="&lt;Group&gt;" style="opacity: 0.4">
				<g id="&lt;Group&gt;">
					<g id="&lt;Group&gt;">
						<path id="&lt;Path&gt;" class="shp19" d="M1767.33 1400.77C1767.71 1431.62 1743.01 1456.94 1712.16 1457.32C1681.3 1457.71 1655.98 1433.01 1655.6 1402.15C1655.22 1371.3 1679.92 1345.98 1710.77 1345.6C1741.62 1345.22 1766.94 1369.92 1767.33 1400.77Z" />
					</g>
				</g>
			</g>
			<g id="&lt;Group&gt;">
				<g id="&lt;Group&gt;">
					<path id="&lt;Compound Path&gt;" fill-rule="evenodd" class="shp20" d="M1712.87 1507.65C1681.87 1507.65 1656.46 1482.63 1656.08 1451.54C1655.69 1420.22 1680.86 1394.42 1712.18 1394.03C1727.39 1393.87 1741.69 1399.58 1752.56 1410.17C1763.42 1420.77 1769.5 1434.96 1769.69 1450.13C1769.88 1465.31 1764.15 1479.65 1753.55 1490.51C1742.95 1501.37 1728.76 1507.46 1713.59 1507.64C1713.35 1507.65 1713.11 1507.65 1712.87 1507.65ZM1712.9 1395.91C1712.67 1395.91 1712.44 1395.92 1712.21 1395.92C1681.92 1396.29 1657.59 1421.24 1657.97 1451.52C1658.34 1481.8 1683.28 1506.07 1713.56 1505.76C1728.23 1505.57 1741.95 1499.69 1752.2 1489.19C1762.44 1478.69 1767.98 1464.83 1767.8 1450.16C1767.62 1435.49 1761.74 1421.77 1751.24 1411.52C1740.9 1401.44 1727.31 1395.91 1712.9 1395.91Z" />
				</g>
			</g>
			<g id="&lt;Group&gt;" style="opacity: 0.4">
				<g id="&lt;Group&gt;">
					<g id="&lt;Group&gt;">
						<path id="&lt;Path&gt;" class="shp19" d="M2226.72 707.81C2226.98 729.36 2209.73 747.04 2188.18 747.31C2166.63 747.58 2148.95 730.32 2148.68 708.77C2148.41 687.23 2165.67 669.54 2187.21 669.27C2208.76 669.01 2226.45 686.26 2226.72 707.81Z" />
					</g>
				</g>
			</g>
			<g id="&lt;Group&gt;">
				<g id="&lt;Group&gt;">
					<path id="&lt;Compound Path&gt;" fill-rule="evenodd" class="shp20" d="M2188.68 782.74C2178.19 782.74 2168.3 778.72 2160.78 771.39C2153.14 763.93 2148.86 753.95 2148.73 743.27C2148.46 721.24 2166.16 703.09 2188.2 702.82C2210.3 702.56 2228.38 720.25 2228.65 742.28C2228.92 764.32 2211.22 782.47 2189.19 782.74C2189.02 782.74 2188.85 782.74 2188.68 782.74ZM2188.7 704.7C2188.54 704.7 2188.38 704.7 2188.22 704.7C2178.05 704.83 2168.54 708.91 2161.43 716.19C2154.33 723.47 2150.49 733.08 2150.62 743.25C2150.74 753.42 2154.82 762.93 2162.1 770.03C2169.38 777.14 2179.05 780.98 2189.16 780.85C2199.33 780.73 2208.84 776.65 2215.95 769.37C2223.05 762.09 2226.89 752.48 2226.76 742.31C2226.51 721.47 2209.47 704.7 2188.7 704.7Z" />
				</g>
			</g>
			<g id="&lt;Group&gt;" style="opacity: 0.361">
				<g id="&lt;Group&gt;">
					<g id="&lt;Group&gt;">
						<path id="&lt;Path&gt;" class="shp1" d="M761.8 983.42C762.07 1004.97 744.82 1022.66 723.27 1022.92C701.72 1023.19 684.03 1005.94 683.77 984.39C683.5 962.84 700.75 945.16 722.3 944.89C743.85 944.62 761.54 961.87 761.8 983.42Z" />
					</g>
				</g>
			</g>
			<g id="&lt;Group&gt;">
				<g id="&lt;Group&gt;">
					<path id="&lt;Compound Path&gt;" fill-rule="evenodd" class="shp20" d="M723.76 1058.36C713.28 1058.36 703.39 1054.34 695.87 1047C688.23 1039.55 683.95 1029.56 683.82 1018.89C683.54 996.85 701.25 978.7 723.28 978.43C723.45 978.43 723.62 978.43 723.78 978.43C745.59 978.43 763.47 996.03 763.74 1017.9C764.01 1039.93 746.31 1058.08 724.27 1058.35C724.1 1058.36 723.93 1058.36 723.76 1058.36ZM723.78 980.32C723.62 980.32 723.47 980.32 723.31 980.32C713.14 980.45 703.62 984.52 696.52 991.8C689.42 999.08 685.58 1008.69 685.7 1018.86C685.83 1029.04 689.91 1038.55 697.19 1045.65C704.47 1052.75 714.12 1056.58 724.25 1056.47C734.42 1056.34 743.93 1052.26 751.03 1044.98C758.14 1037.7 761.98 1028.09 761.85 1017.92C761.59 997.09 744.56 980.32 723.78 980.32Z" />
				</g>
			</g>
			<g id="&lt;Group&gt;" style="opacity: 0.4">
				<g id="&lt;Group&gt;">
					<g id="&lt;Group&gt;">
						<path id="&lt;Path&gt;" class="shp19" d="M3151.72 1217.51C3151.99 1239.06 3134.74 1256.74 3113.19 1257.01C3091.64 1257.27 3073.96 1240.02 3073.69 1218.47C3073.42 1196.92 3090.67 1179.24 3112.22 1178.97C3133.77 1178.71 3151.46 1195.96 3151.72 1217.51Z" />
					</g>
				</g>
			</g>
			<g id="&lt;Group&gt;">
				<g id="&lt;Group&gt;">
					<path id="&lt;Compound Path&gt;" fill-rule="evenodd" class="shp20" d="M3113.68 1292.44C3103.2 1292.44 3093.31 1288.42 3085.79 1281.08C3078.15 1273.63 3073.87 1263.65 3073.74 1252.97C3073.47 1230.94 3091.17 1212.79 3113.2 1212.52C3135.32 1212.26 3153.39 1229.95 3153.66 1251.98C3153.93 1274.02 3136.23 1292.17 3114.19 1292.44C3114.02 1292.44 3113.85 1292.44 3113.68 1292.44ZM3113.71 1214.4C3113.55 1214.4 3113.39 1214.4 3113.23 1214.4C3103.06 1214.53 3093.55 1218.61 3086.44 1225.89C3079.34 1233.17 3075.5 1242.78 3075.63 1252.95C3075.75 1263.12 3079.83 1272.63 3087.11 1279.73C3094.39 1286.84 3104.04 1290.7 3114.17 1290.55C3124.34 1290.43 3133.85 1286.35 3140.95 1279.07C3148.06 1271.79 3151.9 1262.18 3151.77 1252.01C3151.52 1231.17 3134.48 1214.4 3113.71 1214.4Z" />
				</g>
			</g>
			<g id="&lt;Group&gt;">
				<g id="&lt;Group&gt;" style="opacity: 0.278">
					<g id="&lt;Group&gt;">
						<g id="&lt;Group&gt;">
							<path id="&lt;Path&gt;" class="shp1" d="M2725.87 1323.14C2725.87 1342.3 2710.34 1357.83 2691.18 1357.83C2672.02 1357.83 2656.49 1342.3 2656.49 1323.14C2656.49 1303.98 2672.02 1288.45 2691.18 1288.45C2710.34 1288.45 2725.87 1303.98 2725.87 1323.14Z" />
						</g>
					</g>
				</g>
				<g id="&lt;Group&gt;">
					<g id="&lt;Group&gt;">
						<path id="&lt;Compound Path&gt;" fill-rule="evenodd" class="shp20" d="M2691.68 1389.44C2672.03 1389.44 2656.05 1373.46 2656.05 1353.81C2656.05 1334.16 2672.03 1318.17 2691.68 1318.17C2711.33 1318.17 2727.32 1334.16 2727.32 1353.81C2727.32 1373.46 2711.33 1389.44 2691.68 1389.44ZM2691.68 1320.06C2673.07 1320.06 2657.93 1335.2 2657.93 1353.81C2657.93 1372.41 2673.07 1387.55 2691.68 1387.55C2710.29 1387.55 2725.43 1372.41 2725.43 1353.81C2725.43 1335.2 2710.29 1320.06 2691.68 1320.06Z" />
					</g>
				</g>
			</g>
			<g id="&lt;Group&gt;">
				<g id="&lt;Group&gt;">
					<g id="&lt;Group&gt;">
						<path id="&lt;Path&gt;" class="shp21" d="M1235.95 1740.97L1229.18 1788.24L1107.13 2638.38L1089.96 2638.38L1173.89 1788.24L1177.16 1754.94L1235.95 1740.97Z" />
					</g>
				</g>
				<g id="&lt;Group&gt;">
					<g id="&lt;Group&gt;">
						<path id="&lt;Path&gt;" class="shp4" d="M1593.44 2638.38L1575.97 2638.38L1458.26 1788.24L1448.78 1719.7L1506.26 1754.94L1509.54 1788.24L1593.44 2638.38Z" />
					</g>
				</g>
				<g id="&lt;Group&gt;">
					<g id="&lt;Group&gt;">
						<path id="&lt;Path&gt;" class="shp4" d="M2350.74 1740.97L2344.02 1788.24L2222.9 2639.76L2205.72 2639.76L2289.79 1788.24L2292.93 1756.35L2350.74 1740.97Z" />
					</g>
				</g>
				<g id="&lt;Group&gt;">
					<g id="&lt;Group&gt;">
						<path id="&lt;Path&gt;" class="shp4" d="M2709.21 2639.76L2692.03 2639.76L2571.23 1788.24L2565.33 1746.55L2622 1756.35L2625.15 1788.24L2709.21 2639.76Z" />
					</g>
				</g>
				<g id="&lt;Group&gt;" style="opacity: 0.161">
					<g id="&lt;Group&gt;">
						<g id="&lt;Group&gt;">
							<path id="&lt;Path&gt;" class="shp6" d="M1177.16 1754.94L1235.95 1740.97L1229.18 1788.24L1173.89 1788.24L1177.16 1754.94Z" />
						</g>
					</g>
				</g>
				<g id="&lt;Group&gt;" style="opacity: 0.161">
					<g id="&lt;Group&gt;">
						<g id="&lt;Group&gt;">
							<path id="&lt;Path&gt;" class="shp6" d="M1506.26 1754.94L1509.54 1788.24L1458.26 1788.24L1448.78 1719.7L1506.26 1754.94Z" />
						</g>
					</g>
				</g>
				<g id="&lt;Group&gt;" style="opacity: 0.161">
					<g id="&lt;Group&gt;">
						<g id="&lt;Group&gt;">
							<path id="&lt;Path&gt;" class="shp6" d="M2292.93 1756.35L2350.74 1740.97L2344.02 1788.24L2289.79 1788.24L2292.93 1756.35Z" />
						</g>
					</g>
				</g>
				<g id="&lt;Group&gt;" style="opacity: 0.161">
					<g id="&lt;Group&gt;">
						<g id="&lt;Group&gt;">
							<path id="&lt;Path&gt;" class="shp6" d="M2625.15 1788.24L2571.23 1788.24L2565.33 1746.55L2622 1756.35L2625.15 1788.24Z" />
						</g>
					</g>
				</g>
				<g id="&lt;Group&gt;">
					<g id="&lt;Group&gt;">
						<path id="&lt;Path&gt;" class="shp22" d="M2866.31 1669.91L2866.31 1755.73L973.98 1755.73L973.98 1669.91L2866.31 1669.91Z" />
					</g>
				</g>
				<g id="&lt;Group&gt;">
					<g id="&lt;Group&gt;">
						<path id="&lt;Path&gt;" class="shp23" d="M2866.31 1669.91L2866.31 1672.29L1035.56 1755.73L973.98 1755.73L973.98 1669.91L2866.31 1669.91Z" />
					</g>
				</g>
			</g>
		</g>
	</g>
</svg>